<svg style="width: 22px; height: 22px;" xmlns="http://www.w3.org/2000/svg" xmlns:xlink="http://www.w3.org/1999/xlink" viewBox="0 0 22 22" width="22" height="22"><path d="M4.1249725 10.892791666666666C4.401121666666666 10.892791666666666 4.6249725 11.1166 4.6249725 11.392791666666666L4.6249725 16.892791666666664C4.6249725 17.59294166666667 5.1926175 18.16058333333333 5.892828333333333 18.16058333333333L16.107116666666666 18.16058333333333C16.80735 18.16058333333333 17.374999999999996 17.59294166666667 17.374999999999996 16.892791666666664L17.374999999999996 11.392791666666666C17.374999999999996 11.1166 17.598808333333334 10.892791666666666 17.875 10.892791666666666C18.151108333333333 10.892791666666666 18.375 11.1166 18.375 11.392791666666666L18.375 16.892791666666664C18.375 18.145241666666667 17.35965 19.16058333333333 16.107116666666666 19.16058333333333L5.892828333333333 19.16058333333333C4.640328333333334 19.16058333333333 3.6249724999999997 18.145241666666667 3.6249724999999997 16.892791666666664L3.6249724999999997 11.392791666666666C3.6249724999999997 11.1166 3.8488325000000003 10.892791666666666 4.1249725 10.892791666666666z" fill="currentColor"></path><path d="M2.8392608333333333 8.0535675C2.8392608333333333 7.126520833333333 3.5907816666666665 6.374999999999999 4.517828333333333 6.374999999999999L17.482116666666666 6.374999999999999C18.40915 6.374999999999999 19.160675 7.126520833333333 19.160675 8.0535675L19.160675 9.809341666666667C19.160675 10.625725 18.566341666666666 11.337641666666666 17.725475 11.422875C16.56895833333333 11.540091666666665 14.390741666666667 11.696441666666665 11 11.696441666666665C7.609239999999998 11.696441666666665 5.431005000000001 11.540091666666665 4.2745049999999996 11.422875C3.4335991666666668 11.337641666666666 2.8392608333333333 10.625725 2.8392608333333333 9.809341666666667L2.8392608333333333 8.0535675zM4.517828333333333 7.374999999999999C4.143070833333333 7.374999999999999 3.8392608333333333 7.67881 3.8392608333333333 8.0535675L3.8392608333333333 9.809341666666667C3.8392608333333333 10.14125 4.071879166666666 10.397183333333334 4.375326666666667 10.427975C5.495405 10.541491666666666 7.6398399999999995 10.696441666666667 11 10.696441666666667C14.360141666666665 10.696441666666667 16.504558333333332 10.541491666666666 17.624583333333334 10.427975C17.928075 10.397183333333334 18.160674999999998 10.14125 18.160674999999998 9.809341666666667L18.160674999999998 8.0535675C18.160674999999998 7.67881 17.856849999999998 7.374999999999999 17.482116666666666 7.374999999999999L4.517828333333333 7.374999999999999z" fill="currentColor"></path><path d="M6.178549166666666 4.910775833333333C6.178549166666666 3.5497883333333333 7.281840833333334 2.4464966666666665 8.642828333333332 2.4464966666666665C10.003858333333332 2.4464966666666665 11.107116666666666 3.5497883333333333 11.107116666666666 4.910775833333333L11.107116666666666 7.375064166666665L8.642828333333332 7.375064166666665C7.281840833333334 7.375064166666665 6.178549166666666 6.2717633333333325 6.178549166666666 4.910775833333333zM8.642828333333332 3.4464966666666665C7.83413 3.4464966666666665 7.1785491666666665 4.102077499999999 7.1785491666666665 4.910775833333333C7.1785491666666665 5.719483333333334 7.83413 6.375064166666666 8.642828333333332 6.375064166666666L10.107116666666668 6.375064166666666L10.107116666666668 4.910775833333333C10.107116666666668 4.102077499999999 9.451558333333335 3.4464966666666665 8.642828333333332 3.4464966666666665z" fill="currentColor"></path><path d="M10.892791666666666 4.910775833333333C10.892791666666666 3.5497883333333333 11.996133333333333 2.4464966666666665 13.357116666666666 2.4464966666666665C14.718099999999998 2.4464966666666665 15.821441666666669 3.5497883333333333 15.821441666666669 4.910775833333333C15.821441666666669 6.2717633333333325 14.718099999999998 7.375064166666665 13.357116666666666 7.375064166666665L10.892791666666666 7.375064166666665L10.892791666666666 4.910775833333333zM13.357116666666666 3.4464966666666665C12.548433333333332 3.4464966666666665 11.892791666666666 4.102077499999999 11.892791666666666 4.910775833333333L11.892791666666666 6.375064166666666L13.357116666666666 6.375064166666666C14.165799999999999 6.375064166666666 14.821441666666667 5.719483333333334 14.821441666666667 4.910775833333333C14.821441666666667 4.102077499999999 14.165799999999999 3.4464966666666665 13.357116666666666 3.4464966666666665z" fill="currentColor"></path><path d="M11 5.392764166666666C11.276108333333331 5.392764166666666 11.499999999999998 5.6166149999999995 11.499999999999998 5.892764166666666L11.499999999999998 18.071350000000002C11.499999999999998 18.347458333333332 11.276108333333331 18.571350000000002 11 18.571350000000002C10.723808333333334 18.571350000000002 10.5 18.347458333333332 10.5 18.071350000000002L10.5 5.892764166666666C10.5 5.6166149999999995 10.723808333333334 5.392764166666666 11 5.392764166666666z" fill="currentColor"></path></svg>