<svg style="width: 22px; height: 22px;" xmlns="http://www.w3.org/2000/svg" xmlns:xlink="http://www.w3.org/1999/xlink" viewBox="0 0 22 22" width="22" height="22"><path d="M10.201108333333332 8.360905C10.28265 8.0988875 10.561083333333332 7.952564166666666 10.823141666666666 8.034081666666667C11.551058333333332 8.231978333333332 12.239941666666667 8.6173075 12.811466666666666 9.18882C14.617616666666665 10.995058333333333 14.617616666666665 13.923425 12.811466666666666 15.729583333333332L10.542808333333333 17.998241666666665C8.736659166666668 19.8044 5.8082666666666665 19.8044 4.002093333333333 17.998241666666665C2.195918333333333 16.192083333333333 2.195918333333333 13.263633333333333 4.002093333333333 11.457475L5.958643333333333 9.500941666666668C6.1539125 9.30565 6.4704925 9.30565 6.665754166666667 9.500941666666668C6.861014166666666 9.696233333333332 6.861014166666666 10.01275 6.665754166666667 10.208041666666666L4.7092025 12.164575000000001C3.2935491666666667 13.580233333333332 3.2935491666666667 15.875483333333333 4.7092025 17.291141666666665C6.124845 18.706791666666668 8.420069999999999 18.706791666666668 9.835708333333335 17.291141666666665L12.104358333333332 15.022483333333332C13.520016666666667 13.606833333333334 13.520016666666667 11.311575 12.104358333333332 9.895999999999999C11.650341666666666 9.4419 11.104608333333333 9.137966666666667 10.527891666666665 8.982908333333333C10.265916666666667 8.9013925 10.119566666666667 8.622914999999999 10.201108333333332 8.360905z" fill="currentColor"></path><path d="M17.28985833333333 4.710320833333333C15.874208333333334 3.2946675 13.579033333333333 3.2946675 12.163374999999998 4.710320833333333L9.894725000000001 6.978951666666667C8.479086666666667 8.394605 8.479086666666667 10.689808333333332 9.894725000000001 12.105466666666667C10.325733333333332 12.536475 10.839358333333333 12.831766666666665 11.383541666666666 12.992716666666666C11.643441666666666 13.080841666666664 11.782758333333334 13.362883333333333 11.694641666666666 13.622774999999999C11.606516666666666 13.882674999999999 11.324474999999998 14.021991666666667 11.064583333333333 13.933875C10.377758333333333 13.728891666666666 9.729776666666666 13.354716666666665 9.187621666666667 12.812566666666667C7.381455833333333 11.006408333333333 7.381455833333333 8.078023333333332 9.187621666666667 6.2718425L11.456274999999998 4.003211666666666C13.262433333333332 2.1970366666666665 16.1908 2.1970366666666665 17.997041666666668 4.003211666666666C19.803199999999997 5.809385 19.803199999999997 8.7377775 17.997041666666668 10.543908333333334L16.066008333333333 12.474941666666666C15.870800000000001 12.67015 15.554208333333332 12.67015 15.358908333333334 12.474941666666666C15.163699999999999 12.279641666666667 15.163699999999999 11.963049999999999 15.358908333333334 11.767758333333331L17.28985833333333 9.836808333333332C18.705508333333334 8.421188333333333 18.705508333333334 6.125964999999999 17.28985833333333 4.710320833333333z" fill="currentColor"></path></svg>