<svg style="width: 22px; height: 22px;" xmlns="http://www.w3.org/2000/svg" xmlns:xlink="http://www.w3.org/1999/xlink" viewBox="0 0 22 22" width="22" height="22"><path d="M2.7083333333333335 6.1875C2.7083333333333335 4.266007500000001 4.266007500000001 2.7083333333333335 6.1875 2.7083333333333335L15.8125 2.7083333333333335C17.734016666666665 2.7083333333333335 19.291666666666668 4.266007500000001 19.291666666666668 6.1875L19.291666666666668 15.8125C19.291666666666668 17.734016666666665 17.734016666666665 19.291666666666668 15.8125 19.291666666666668L6.1875 19.291666666666668C4.266007500000001 19.291666666666668 2.7083333333333335 17.734016666666665 2.7083333333333335 15.8125L2.7083333333333335 6.1875zM6.1875 3.7083333333333335C4.818296666666667 3.7083333333333335 3.7083333333333335 4.818296666666667 3.7083333333333335 6.1875L3.7083333333333335 15.8125C3.7083333333333335 17.181716666666667 4.818296666666667 18.291666666666664 6.1875 18.291666666666664L15.8125 18.291666666666664C17.181716666666667 18.291666666666664 18.291666666666664 17.181716666666667 18.291666666666664 15.8125L18.291666666666664 6.1875C18.291666666666664 4.818296666666667 17.181716666666667 3.7083333333333335 15.8125 3.7083333333333335L6.1875 3.7083333333333335z" fill="currentColor"></path><path d="M13.757108333333333 13.653325L13.158108333333333 13.952791666666666C12.345366666666667 14.3557 11.483833333333333 14.548616666666666 10.604199999999999 14.548791666666666L10.368558333333333 14.548224999999999C9.573775000000001 14.542691666666666 8.928339999999999 13.893758333333334 8.928339999999999 13.106541666666667C8.927285 12.855666666666666 9.130069166666667 12.637524999999998 9.396216666666666 12.637524999999998C9.64563333333333 12.63695 9.860033333333332 12.83735 9.864341666666665 13.104591666666666C9.865283333333332 13.383716666666666 10.094491666666666 13.612383333333332 10.380683333333334 13.612383333333332L10.624783333333333 13.612383333333332C10.888233333333332 13.612383333333332 11.132408333333332 13.591833333333332 11.388491666666665 13.55095L11.388491666666665 12.101108333333334L9.394841666666666 12.101108333333334C9.143170833333333 12.101108333333334 8.928423333333333 11.895983333333334 8.928423333333333 11.632333333333333C8.928423333333333 11.376408333333332 9.135684166666667 11.164774999999999 9.396791666666667 11.164774999999999L11.388491666666665 11.164774999999999L11.388491666666665 10.612825L10.500566666666666 10.612325C10.4498 10.667208333333333 10.397116666666665 10.721 10.343266666666667 10.770125L10.283000000000001 10.822333333333335C10.162016666666666 10.933691666666666 9.992883333333332 10.970591666666666 9.838641666666666 10.92825C9.684408333333334 10.885825 9.561066666666665 10.760683333333333 9.518133333333333 10.599058333333334C9.477158333333334 10.441824999999998 9.520241666666665 10.275683333333332 9.637475 10.1592L9.692716666666666 10.104624999999999C9.957916666666666 9.841175 10.155516666666667 9.541183333333333 10.281841666666667 9.20215C10.373700000000001 8.958719166666665 10.644416666666666 8.83972 10.879008333333333 8.922351666666666C11.10935 9.0042925 11.226058333333333 9.244898333333332 11.15910833333333 9.471924999999999C11.140575 9.538158333333332 11.120325 9.607483333333333 11.094074999999998 9.676083333333333L13.829766666666666 9.676491666666667C14.077258333333333 9.676491666666667 14.292758333333333 9.880625 14.292758333333333 10.146899999999999C14.292758333333333 10.408016666666665 14.074333333333334 10.612825 13.826833333333333 10.612825L12.325141666666667 10.612825L12.325141666666667 11.164774999999999L14.316583333333334 11.164774999999999C14.565591666666666 11.164774999999999 14.786333333333333 11.365008333333332 14.784708333333331 11.635266666666666C14.784708333333331 11.897283333333332 14.569491666666664 12.100783333333332 14.316583333333334 12.100783333333332L12.325141666666667 12.100783333333332L12.325141666666667 13.296475C12.479316666666666 13.238258333333333 12.622083333333332 13.17395 12.769941666666664 13.100524999999998L13.359041666666666 12.806449999999998C13.366616666666665 12.610191666666667 13.516291666666666 12.43765 13.711441666666666 12.38815C13.9066 12.33865 14.130925 12.422625 14.23575 12.607916666666666L14.621291666666666 13.278949999999998C14.7073 13.429416666666665 14.704008333333332 13.611275000000001 14.612716666666666 13.75965C14.52905 13.898425 14.375 13.982474999999999 14.214866666666666 13.981924999999999C14.047308333333334 13.981425 13.896616666666667 13.892199999999999 13.81745 13.757808333333333L13.757108333333333 13.653325z" fill="currentColor"></path><path d="M10.141116666666667 7.871404999999999C11.328766666666667 7.438774166666667 12.555391666666667 7.215831666666666 13.827083333333333 7.215848333333333C15.153899999999997 7.215848333333333 16.26105 8.289123333333334 16.26105 9.654541666666667L16.26105 13.283133333333334C16.26105 13.877308333333332 16.019366666666667 14.452191666666666 15.599258333333335 14.8723C15.17915 15.292416666666664 14.604941666666665 15.532691666666665 14.006291666666668 15.532691666666665L12.859875 15.532691666666665C12.596625 15.532691666666665 12.391174999999999 15.317558333333332 12.391174999999999 15.067658333333336C12.391174999999999 14.805141666666664 12.600616666666665 14.596358333333335 12.859875 14.596358333333335L14.004308333333332 14.596358333333335C14.735625000000002 14.596358333333335 15.325183333333333 14.00395 15.325183333333333 13.273366666666666L15.325183333333333 9.652908333333334C15.325183333333333 8.823482499999999 14.655866666666666 8.152205 13.827083333333333 8.152205C12.581516666666667 8.152205 11.338858333333333 8.391508333333334 10.186158333333333 8.856445833333334L9.571741666666664 9.102275833333332C9.534158333333332 9.117400833333333 9.498483333333333 9.126616666666667 9.458241666666664 9.1311175C9.244658333333334 9.437491666666666 9.022283333333332 9.70335 8.754945833333334 9.973466666666667C8.576434166666667 10.1538 8.272740833333334 10.149383333333333 8.093571666666666 9.969075C7.914400833333333 9.788766666666666 7.913789166666667 9.495258333333334 8.09357 9.308340000000001C8.678384166666666 8.717681666666666 9.118864166666667 8.017764999999999 9.394874999999999 7.194660833333334L9.446258333333333 7.040054166666667C9.497933333333334 6.872650833333333 9.633899999999999 6.7534725 9.794308333333332 6.718536666666666C9.954641666666666 6.6836025 10.129574999999999 6.735529999999999 10.244158333333333 6.865451666666666C10.351725 6.9883375 10.389983333333333 7.1609175 10.336116666666667 7.322384999999999L10.288358333333335 7.470230833333334C10.2444 7.606509999999999 10.196091666666668 7.735731666666667 10.141116666666667 7.871404999999999z" fill="currentColor"></path><path d="M7.281644166666666 8.590612499999999C7.010457499999999 8.590661666666666 6.759849999999999 8.446013333333333 6.6242475 8.21117C6.488643333333333 7.9763175 6.488643333333333 7.686965833333334 6.6242475 7.4521225C6.759849999999999 7.21727 7.010457499999999 7.072621666666667 7.281644166666666 7.072669166666667C7.700748333333332 7.072753333333333 8.040468333333333 7.4125299999999985 8.040468333333333 7.831641666666665C8.040468333333333 8.250753333333332 7.700748333333332 8.5905375 7.281644166666666 8.590612499999999z" fill="currentColor"></path><path d="M6.420774166666667 10.315491666666667C6.270295833333334 10.251333333333331 6.1625775 10.100191666666666 6.146236666666666 9.935008333333332C6.129231666666667 9.763308333333335 6.207533333333332 9.603124999999999 6.341634166666666 9.507733333333332C6.475736666666666 9.412341666666666 6.6631149999999995 9.391433333333332 6.8192200000000005 9.470058333333332L7.109841666666667 9.604616666666667C7.688676666666667 9.877066666666668 8.130755833333334 10.387 8.313906666666666 11.006116666666665C8.496081666666667 11.613416666666666 8.4112325 12.28825 8.061553333333332 12.847466666666666L6.841030833333333 14.820866666666664C6.7568825 14.964991666666664 6.5957558333333335 15.057891666666668 6.4190958333333334 15.050316666666667C6.250913333333333 15.044141666666668 6.1002575 14.946441666666667 6.023563333333333 14.801716666666668C5.9440425 14.651991666666666 5.954351666666666 14.465425 6.044146666666666 14.329208333333334L7.272609999999999 12.34385C7.474779166666666 12.017416666666666 7.5227008333333325 11.627616666666666 7.416402499999999 11.271275C7.306640833333333 10.903233333333333 7.0499325 10.608883333333333 6.701947499999999 10.446458333333334L6.420774166666667 10.315491666666667z" fill="currentColor"></path></svg>