<svg style="width: 22px; height: 22px;" xmlns="http://www.w3.org/2000/svg" xmlns:xlink="http://www.w3.org/1999/xlink" viewBox="0 0 22 22" width="22" height="22"><path d="M2.0208333333333335 13.063508333333331C2.0208333333333335 11.901441666666667 2.9629016666666663 10.959341666666665 4.125 10.959341666666665L5.041666666666666 10.959341666666665C6.203764999999999 10.959341666666665 7.145833333333333 11.901441666666667 7.145833333333333 13.063508333333331L7.145833333333333 16.271841666666667C7.145833333333333 17.43390833333333 6.203764999999999 18.376008333333335 5.041666666666666 18.376008333333335L4.125 18.376008333333335C2.9629016666666663 18.376008333333335 2.0208333333333335 17.43390833333333 2.0208333333333335 16.271841666666667L2.0208333333333335 13.063508333333331zM4.125 11.959341666666665C3.5151833333333333 11.959341666666665 3.020833333333333 12.453658333333333 3.020833333333333 13.063508333333331L3.020833333333333 16.271841666666667C3.020833333333333 16.88169166666667 3.5151833333333333 17.37600833333333 4.125 17.37600833333333L5.041666666666666 17.37600833333333C5.651485 17.37600833333333 6.145833333333333 16.88169166666667 6.145833333333333 16.271841666666667L6.145833333333333 13.063508333333331C6.145833333333333 12.453658333333333 5.651485 11.959341666666665 5.041666666666666 11.959341666666665L4.125 11.959341666666665z" fill="currentColor"></path><path d="M8.4375 5.271731666666667C8.4375 4.109633333333333 9.379601666666668 3.167565 10.541666666666666 3.167565L11.458333333333332 3.167565C12.620399999999998 3.167565 13.562499999999998 4.109633333333333 13.562499999999998 5.271731666666667L13.562499999999998 16.27175C13.562499999999998 17.433816666666665 12.620399999999998 18.37591666666667 11.458333333333332 18.37591666666667L10.541666666666666 18.37591666666667C9.379601666666668 18.37591666666667 8.4375 17.433816666666665 8.4375 16.27175L8.4375 5.271731666666667zM10.541666666666666 4.167565000000001C9.931816666666666 4.167565000000001 9.4375 4.661913333333333 9.4375 5.271731666666667L9.4375 16.27175C9.4375 16.881516666666666 9.931816666666666 17.375916666666665 10.541666666666666 17.375916666666665L11.458333333333332 17.375916666666665C12.068183333333334 17.375916666666665 12.5625 16.881516666666666 12.5625 16.27175L12.5625 5.271731666666667C12.5625 4.661913333333333 12.068183333333334 4.167565000000001 11.458333333333332 4.167565000000001L10.541666666666666 4.167565000000001z" fill="currentColor"></path><path d="M14.854166666666664 10.084249999999999C14.854166666666664 8.922133333333333 15.796266666666666 7.980065000000001 16.958333333333332 7.980065000000001L17.875 7.980065000000001C19.037066666666664 7.980065000000001 19.979166666666668 8.922133333333333 19.979166666666668 10.084249999999999L19.979166666666668 16.27175C19.979166666666668 17.433816666666665 19.037066666666664 18.37591666666667 17.875 18.37591666666667L16.958333333333332 18.37591666666667C15.796266666666666 18.37591666666667 14.854166666666664 17.433816666666665 14.854166666666664 16.27175L14.854166666666664 10.084249999999999zM16.958333333333332 8.980066666666666C16.34848333333333 8.980066666666666 15.854166666666668 9.4744 15.854166666666668 10.084249999999999L15.854166666666668 16.27175C15.854166666666668 16.881516666666666 16.34848333333333 17.375916666666665 16.958333333333332 17.375916666666665L17.875 17.375916666666665C18.48485 17.375916666666665 18.979166666666664 16.881516666666666 18.979166666666664 16.27175L18.979166666666664 10.084249999999999C18.979166666666664 9.4744 18.48485 8.980066666666666 17.875 8.980066666666666L16.958333333333332 8.980066666666666z" fill="currentColor"></path></svg>