<svg style="width: 22px; height: 22px;" xmlns="http://www.w3.org/2000/svg" xmlns:xlink="http://www.w3.org/1999/xlink" viewBox="0 0 22 22" width="22" height="22"><path d="M11 3.019045833333333C6.593229166666666 3.019045833333333 3.020833333333333 6.591441666666666 3.020833333333333 10.998166666666666C3.020833333333333 15.404950000000001 6.593229166666666 18.977333333333334 11 18.977333333333334C15.406775 18.977333333333334 18.979166666666664 15.404950000000001 18.979166666666664 10.998166666666666C18.979166666666664 6.591441666666666 15.406775 3.019045833333333 11 3.019045833333333zM2.0208333333333335 10.998166666666666C2.0208333333333335 6.0391525 6.04094 2.019045833333333 11 2.019045833333333C15.959074999999997 2.019045833333333 19.979166666666668 6.0391525 19.979166666666668 10.998166666666666C19.979166666666668 15.957249999999998 15.959074999999997 19.977333333333334 11 19.977333333333334C6.04094 19.977333333333334 2.0208333333333335 15.957249999999998 2.0208333333333335 10.998166666666666z" fill="currentColor"></path><path d="M13.850841666666668 10.240291666666668C14.435649999999999 10.577883333333332 14.435649999999999 11.421958333333334 13.850841666666668 11.759641666666665L10.2325 13.848716666666666C9.647683333333333 14.186316666666666 8.916668333333332 13.764275 8.916668333333332 13.089083333333333L8.916668333333332 8.910848333333334C8.916668333333332 8.235588333333332 9.647683333333333 7.813549999999998 10.2325 8.15118L13.850841666666668 10.240291666666668z" fill="currentColor"></path></svg>