<svg style="width: 22px; height: 22px;" xmlns="http://www.w3.org/2000/svg" xmlns:xlink="http://www.w3.org/1999/xlink" viewBox="0 0 22 22" width="22" height="22"><path d="M7.791666666666666 7.733060333333333C7.253044666666666 7.733060333333333 6.816416666666667 8.169688333333333 6.816416666666667 8.708310333333333C6.816416666666667 9.246946 7.253044666666666 9.683544999999999 7.791666666666666 9.683544999999999C8.330281000000001 9.683544999999999 8.766916666666667 9.246946 8.766916666666667 8.708310333333333C8.766916666666667 8.169688333333333 8.330281000000001 7.733060333333333 7.791666666666666 7.733060333333333zM5.558583333333333 8.708310333333333C5.558583333333333 7.475007999999999 6.558372 6.4752193333333325 7.791666666666666 6.4752193333333325C9.024961333333332 6.4752193333333325 10.02475 7.475007999999999 10.02475 8.708310333333333C10.02475 9.941568333333333 9.024961333333332 10.941378333333333 7.791666666666666 10.941378333333333C6.558372 10.941378333333333 5.558583333333333 9.941568333333333 5.558583333333333 8.708310333333333z" fill="currentColor"></path><path d="M11 4.543596666666667C8.690401666666668 4.543596666666667 6.673815333333333 4.661083166666667 5.250284333333333 4.776523999999999C4.243521333333333 4.858162833333334 3.4624053333333333 5.627683666666666 3.37265 6.626020666666667C3.268142166666667 7.788485666666666 3.170833333333333 9.321563333333334 3.170833333333333 10.9978C3.170833333333333 12.673983333333332 3.268142166666667 14.207033333333332 3.37265 15.369535C3.4624053333333333 16.36785666666667 4.243521333333333 17.137388333333334 5.250284333333333 17.219013333333333C6.673816833333333 17.334481666666665 8.690401666666668 17.451966666666664 11 17.451966666666664C13.309854999999999 17.451966666666664 15.326548333333335 17.33439 16.750163333333333 17.218959999999996C17.756758333333334 17.137349999999998 18.5377 16.36804 18.627441666666666 15.36994C18.731925 14.207988333333333 18.829166666666666 12.675175 18.829166666666666 10.9978C18.829166666666666 9.320333333333332 18.731925 7.787542999999999 18.627441666666666 6.6255715C18.5377 5.627479 17.756758333333334 4.858190333333333 16.750163333333333 4.776553C15.326548333333335 4.661109166666666 13.309854999999999 4.543596666666667 11 4.543596666666667zM5.145209166666667 3.480780333333333C6.5952265 3.3631968333333333 8.647761666666666 3.2435966666666665 11 3.2435966666666665C13.352495000000001 3.2435966666666665 15.405159999999999 3.3632151666666665 16.855203333333332 3.4808078333333334C18.484758333333332 3.6129723333333335 19.775116666666666 4.873037 19.922241666666665 6.509160333333334C20.02923333333333 7.6992561666666655 20.129166666666666 9.272141666666666 20.129166666666666 10.9978C20.129166666666666 12.723366666666667 20.02923333333333 14.296258333333332 19.922241666666665 15.486381666666665C19.775116666666666 17.12246833333333 18.484758333333332 18.382566666666666 16.855203333333332 18.514723333333333C15.405159999999999 18.63231 13.352495000000001 18.751966666666664 11 18.751966666666664C8.647761666666666 18.751966666666664 6.5952265 18.63231 5.145209166666667 18.514761666666665C3.515391333333333 18.382566666666666 2.224978166666667 17.122193333333332 2.0778760000000003 15.485923333333332C1.970837 14.295341666666666 1.8708333333333333 12.722213333333332 1.8708333333333333 10.9978C1.8708333333333333 9.273295 1.970837 7.700146833333332 2.0778760000000003 6.509618666666666C2.224978166666667 4.8733365 3.515391333333333 3.6129448333333336 5.145209166666667 3.480780333333333z" fill="currentColor"></path><path d="M14.586553333333333 12.397246666666668C14.19608 12.006681666666665 13.562881666666666 12.006681666666665 13.172316666666665 12.397208333333333L11.288666666666668 14.280896666666665C10.517069999999999 15.052493333333333 9.265836666666667 15.052218333333332 8.494585500000001 14.280124999999998C8.166277166666667 13.951508333333333 7.633659333333334 13.951363333333331 7.305149499999999 14.279834999999999L5.922092833333333 15.66269C5.6682380000000006 15.91648833333333 5.256674833333333 15.91648833333333 5.002853666666667 15.662636666666666C4.7490248333333325 15.4088 4.749050833333333 14.99722 5.002907166666666 14.743368333333333L6.385979166666666 13.360513333333333C7.222356166666667 12.524223333333333 8.578404666666666 12.524628333333332 9.414303333333333 13.361376666666667C9.677975 13.6253 10.105658333333334 13.625445 10.369436666666665 13.361666666666666L12.253033333333333 11.477978333333331C13.151301666666665 10.57971 14.607698333333333 10.579763333333334 15.505913333333332 11.478108333333331L16.99718 12.969611666666665C17.250978333333336 13.223448333333334 17.25094 13.63499 16.997049999999998 13.888841666666666C16.743198333333332 14.142639999999998 16.331671666666665 14.142639999999998 16.07782 13.88875L14.586553333333333 12.397246666666668z" fill="currentColor"></path></svg>