<svg xmlns="http://www.w3.org/2000/svg" width="91" height="34" viewBox="0 0 91 34" fill="none">
<g clip-path="url(#clip0)">
<path d="M11.6394 13.4341V12.1233C11.184 12.0686 10.7286 12.0322 10.255 12.0322C4.60798 12.0322 -0.000732422 16.6203 -0.000732422 22.2825C-0.000732422 25.7417 1.72981 28.8186 4.37116 30.6756C2.65884 28.8368 1.62052 26.3971 1.62052 23.7026C1.63873 18.1132 6.10171 13.5616 11.6394 13.4341Z" fill="#00FAF0"/>
<path d="M11.8766 28.345C14.3905 28.345 16.4489 26.3423 16.54 23.848V1.5451H20.6205C20.5294 1.08994 20.4929 0.616574 20.4929 0.125H14.9188V22.4279C14.8277 24.9222 12.7692 26.9249 10.2554 26.9249C9.47209 26.9249 8.72522 26.7246 8.08765 26.3787C8.94381 27.5803 10.3282 28.345 11.8766 28.345Z" fill="#00FAF0"/>
<path d="M28.2514 9.11927V7.88124C26.7031 7.88124 25.2458 7.42608 24.0253 6.625C25.1182 7.86304 26.5938 8.75514 28.2514 9.11927Z" fill="#00FAF0"/>
<path d="M24.0449 6.6255C22.8609 5.26002 22.1323 3.49399 22.1323 1.5459H20.6385C21.0393 3.65785 22.2962 5.4785 24.0449 6.6255Z" fill="#FF0050"/>
<path d="M10.2551 17.5847C7.66836 17.5847 5.57349 19.6784 5.57349 22.2637C5.57349 24.0662 6.5936 25.6137 8.08733 26.3966C7.54084 25.6319 7.19473 24.6852 7.19473 23.6656C7.19473 21.0803 9.28961 18.9866 11.8763 18.9866C12.3499 18.9866 12.8236 19.0594 13.2608 19.205V13.5246C12.8054 13.47 12.3499 13.4336 11.8763 13.4336C11.8035 13.4336 11.7124 13.4336 11.6395 13.4336V17.8031C11.2023 17.6575 10.7469 17.5847 10.2551 17.5847Z" fill="#FF0050"/>
<path d="M28.2523 9.11914V13.4523C25.356 13.4523 22.6964 12.5238 20.5104 10.958V22.2642C20.5104 27.9082 15.9199 32.5144 10.2547 32.5144C8.06873 32.5144 6.04672 31.8226 4.38904 30.6574C6.26531 32.6601 8.92489 33.9345 11.8941 33.9345C17.5412 33.9345 22.1499 29.3465 22.1499 23.6843V12.3781C24.3358 13.9439 27.0136 14.8724 29.8918 14.8724V9.30121C29.3271 9.283 28.7806 9.22838 28.2523 9.11914Z" fill="#FF0050"/>
<path d="M20.5094 22.2648V10.9586C22.6953 12.5244 25.3731 13.4529 28.2513 13.4529V9.11977C26.5754 8.75565 25.1181 7.86354 24.0251 6.6255C22.2763 5.4967 21.0194 3.67605 20.6369 1.5459H16.5564V23.8488C16.4653 26.3431 14.4069 28.3458 11.8931 28.3458C10.3265 28.3458 8.94202 27.5811 8.10407 26.3977C6.61034 25.6148 5.59023 24.0491 5.59023 22.2648C5.59023 19.6795 7.6851 17.5858 10.2718 17.5858C10.7454 17.5858 11.2191 17.6586 11.6562 17.8042V13.4347C6.1185 13.5621 1.65552 18.1138 1.65552 23.6667C1.65552 26.3613 2.69384 28.8191 4.40617 30.6398C6.06385 31.805 8.10408 32.4969 10.2718 32.4969C15.9006 32.5151 20.5094 27.9088 20.5094 22.2648Z" fill="#111111"/>
<path d="M41.9472 6.10254H39.2989V9.99149H36.2228V12.6384H39.2989V18.0341L36.2228 18.482V21.2715L39.2989 20.8235V25.4455C39.2989 25.812 38.9933 26.1174 38.6266 26.1174H36.4061V28.7643H39.7267C40.949 28.7643 41.9472 27.7666 41.9472 26.545V20.4367L44.6363 20.0295V17.24L41.9472 17.6472V12.6588H44.6363V10.0119H41.9472V6.10254Z" fill="#111111"/>
<path d="M56.9451 6.10254H54.3171V19.9277L45.5979 20.681V23.4705L54.3171 22.7375V28.9476H56.9451V22.4932L59.6342 22.2488V19.4594L56.9451 19.7037V6.10254Z" fill="#111111"/>
<path d="M52.951 9.17845L46.6968 8.05859V10.8684L52.951 11.9679V9.17845Z" fill="#111111"/>
<path d="M52.951 14.9802L46.6968 13.8604V16.6702L52.951 17.79V14.9802Z" fill="#111111"/>
<path d="M81.1238 13.8204L81.5312 11.6621H78.7403L78.3125 13.8204H71.0193L70.6933 11.6621H67.882L68.2283 13.8204H62.9316V16.4062H86.2983V13.8204H81.1238Z" fill="#111111"/>
<path d="M85.5649 7.93503H76.7031L76.2549 6.10254H72.8121L73.2602 7.93503H63.665V10.5005H85.5649V7.93503Z" fill="#111111"/>
<path d="M81.9592 18.3008H67.271C66.0486 18.3008 65.0504 19.2985 65.0504 20.5201V26.5674C65.0504 27.789 66.0486 28.7867 67.271 28.7867H81.9592C83.1815 28.7867 84.1798 27.789 84.1798 26.5674V20.5201C84.1798 19.2985 83.2019 18.3008 81.9592 18.3008ZM68.2081 20.7034H81.0425C81.4092 20.7034 81.7147 21.0088 81.7147 21.3753V22.4544H67.5562V21.3753C67.5358 20.9884 67.8414 20.7034 68.2081 20.7034ZM81.0425 26.4045H68.2081C67.8414 26.4045 67.5358 26.0991 67.5358 25.7326V24.6331H81.6944V25.7326C81.6944 26.0991 81.4092 26.4045 81.0425 26.4045Z" fill="#111111"/>
</g>
<defs>
<clipPath id="clip0">
<rect width="90.6667" height="33.8753" fill="white" transform="translate(-0.000244141 0.125)"/>
</clipPath>
</defs>
<script xmlns=""/></svg>