<svg id="图层_1" data-name="图层 1" xmlns="http://www.w3.org/2000/svg" viewBox="0 0 95 47"><defs><style>.cls-1{fill:#fff;}.cls-1,.cls-2{fill-rule:evenodd;}.cls-2{fill:silver;}</style></defs><path class="cls-1" d="M89.23,4.85h-28V9.51H5.3V43.08H89.23V4.85Z"/><path class="cls-2" d="M91.56.19H61.25A2.68,2.68,0,0,0,58.46,3V4.85h-55a2.69,2.69,0,0,0-2.8,2.8V44a2.69,2.69,0,0,0,2.8,2.79H91.56A2.69,2.69,0,0,0,94.36,44V3C93.89,1.12,93,.19,91.56.19Zm-2.8,38.23A2.69,2.69,0,0,1,86,41.22H66.85a2.69,2.69,0,0,1-2.8-2.8V8.58a2.69,2.69,0,0,1,2.8-2.8H86a2.69,2.69,0,0,1,2.79,2.8ZM55.19,30V13.71a2,2,0,0,0-1.86-1.87h-2.8a2,2,0,0,0-1.86,1.87V29.1L42.6,34.22,37,28.63V12.78a2,2,0,0,0-1.87-1.87H32.35a2,2,0,0,0-1.87,1.87V29.56c0,.93,0,1.87.47,1.87l9.32,9.32c.47.47,2.33.47,2.33.47s1.87,0,2.34-.47l9.32-9.32C54.26,31,55.19,30.49,55.19,30Zm-28.9,9.79a2,2,0,0,1-1.87,1.86H8.1a2,2,0,0,1-1.86-1.86v-27A2,2,0,0,1,8.1,10.91h2.8a2,2,0,0,1,1.86,1.87V34.69H24a2,2,0,0,1,1.87,1.87v3.26ZM72.44,12.31H79.9a2,2,0,0,1,1.87,1.86V32.83a2,2,0,0,1-1.87,1.86H72.44a2,2,0,0,1-1.86-1.86V14.64A2.13,2.13,0,0,1,72.44,12.31Z"/></svg>