<svg id="图层_1" data-name="图层 1" xmlns="http://www.w3.org/2000/svg" viewBox="0 0 95 47"><defs><style>.cls-1,.cls-3{fill:#fff;}.cls-1,.cls-2{fill-rule:evenodd;}.cls-2{fill:silver;}</style></defs><path class="cls-1" d="M89.63,3.49H63.43V8.64H6.36V40H89.63V8.64h0Z"/><path class="cls-2" d="M62,.22A2.7,2.7,0,0,0,59.18,3V4.9H4A2.7,2.7,0,0,0,1.17,7.71V44.19A2.7,2.7,0,0,0,4,47H91.92a2.7,2.7,0,0,0,2.81-2.81V3c.47-1.4-.94-2.81-2.34-2.81ZM54.26,29.69c.47-.47.47-.94.47-1.87V11.45a2,2,0,0,0-1.87-1.87H50.05a2,2,0,0,0-1.87,1.87V26.88L42.1,32.5l-5.61-5.62V11a2,2,0,0,0-1.87-1.87H31.81A2,2,0,0,0,29.94,11V27.82c0,.93,0,1.87.47,1.87l9.35,9.36c.47.46,2.34.46,2.34.46s1.87,0,2.34-.46ZM25,40H8.66a2,2,0,0,1-1.87-1.87V11A2,2,0,0,1,8.66,9.11h2.8A2,2,0,0,1,13.33,11V33H24.56a2,2,0,0,1,1.87,1.88v2.8A1.64,1.64,0,0,1,25,40Z"/><path class="cls-3" d="M72,7.45H82a.15.15,0,0,1,.15.15v5.85a0,0,0,0,1,0,0H72a.15.15,0,0,1-.15-.15V7.6A.15.15,0,0,1,72,7.45Z"/><rect class="cls-3" x="76.11" y="11.87" width="6.04" height="25.36"/><rect class="cls-3" x="70.97" y="32.57" width="16.34" height="7.41" rx="0.5"/></svg>