<svg id="图层_1" data-name="图层 1" xmlns="http://www.w3.org/2000/svg" viewBox="0 0 95 47"><defs><style>.cls-1{fill:#fff;}.cls-2{fill:#8bd29b;}</style></defs><path class="cls-1" d="M3.28,5.85h87.5V44.32H3.28Z"/><path class="cls-2" d="M92.09.49a2.38,2.38,0,0,1,2.36,2.69V43.83a2.65,2.65,0,0,1-2.62,2.68H3.19a2.66,2.66,0,0,1-2.7-2.6v-36a2.66,2.66,0,0,1,2.7-2.69H58.75v-2A2.66,2.66,0,0,1,61.44.49ZM35.19,10.9h-2.7a2.17,2.17,0,0,0-2,2V29.38c0,.76,0,1.8.34,2l9.42,9.41a4.49,4.49,0,0,0,4.72,0l10.1-9.41c.34-.33.34-1,.34-1.68V13.26a2.17,2.17,0,0,0-2-2H50.68a2.16,2.16,0,0,0-2,2V28.37l-5.73,5.71L37.2,28.37V12.92A2.16,2.16,0,0,0,35.19,10.9Zm-24.25,0H8.25a2.17,2.17,0,0,0-2,2V39.46a2.16,2.16,0,0,0,2,2H24.41a2.16,2.16,0,0,0,2-2V36.77a2.17,2.17,0,0,0-2-2H13V12.92A2.17,2.17,0,0,0,10.94,10.9Zm76.11-5H66.16a2.15,2.15,0,0,0-2,2v2.69a2.16,2.16,0,0,0,2,2H82.33v7.73H66.16a2.15,2.15,0,0,0-2,2V39.46a2.16,2.16,0,0,0,2,2H87.05a2.17,2.17,0,0,0,2-2V36.77a2.17,2.17,0,0,0-2-2H70.89V27H87.05a2.17,2.17,0,0,0,2-2V7.88A2.16,2.16,0,0,0,87.05,5.87Z"/></svg>