<svg id="图层_1" data-name="图层 1" xmlns="http://www.w3.org/2000/svg" viewBox="0 0 95 47"><defs><style>.cls-1{fill:#fff;}.cls-1,.cls-2{fill-rule:evenodd;}.cls-2{fill:#7bcdef;}</style></defs><path class="cls-1" d="M88.64,5.45H62.72v5.09H6.27v31H88.64v-31h0Z"/><path class="cls-2" d="M58.56,3.14A2.67,2.67,0,0,1,61.34.36H91.41c1.39,0,2.78,1.39,2.32,2.78V43.86A2.67,2.67,0,0,1,91,46.64H4a2.67,2.67,0,0,1-2.78-2.78V7.77A2.67,2.67,0,0,1,4,5h54.6ZM86.32,41.55a2,2,0,0,0,1.85-1.85V7.77a2,2,0,0,0-1.85-1.85H66a2,2,0,0,0-1.85,1.85v2.77A2,2,0,0,0,66,12.39H81.7v7.87H66a2,2,0,0,0-1.85,1.85v2.78A2,2,0,0,0,66,26.74H81.7v7.87H66a2,2,0,0,0-1.85,1.85v2.77A2,2,0,0,0,66,41.08H86.32ZM55.32,30a2.79,2.79,0,0,1-.46,1.85l-9.72,9.25c-.46.47-2.31.47-2.31.47s-1.85,0-2.32-.47l-9.25-9.25c-.46,0-.46-1.39-.46-1.85V13.32a2,2,0,0,1,1.85-1.85h2.77a2,2,0,0,1,1.85,1.85V29.05l5.56,5.56,5.55-5.56V13.78a2,2,0,0,1,1.85-1.85H53a2,2,0,0,1,1.85,1.85V30ZM8.59,41.55H24.32a2,2,0,0,0,1.85-1.85V36.92a2,2,0,0,0-1.85-1.85H13.68V13.32a2,2,0,0,0-1.86-1.85H8.59a2,2,0,0,0-1.86,1.85V40.16A2.08,2.08,0,0,0,8.59,41.55Z"/></svg>