<svg id="图层_1" data-name="图层 1" xmlns="http://www.w3.org/2000/svg" viewBox="0 0 95 47"><defs><style>.cls-1{fill:#fff;}.cls-1,.cls-2{fill-rule:evenodd;}.cls-2{fill:#febb8b;}</style></defs><path class="cls-1" d="M89.11,5.43H62.9v5.09H5.8V41.57H89.11v-31h0Z"/><path class="cls-2" d="M58.69,3.11A2.68,2.68,0,0,1,61.49.33H91.91c1.41,0,2.81,1.39,2.34,2.78V43.89a2.68,2.68,0,0,1-2.8,2.78h-88a2.68,2.68,0,0,1-2.8-2.78V7.74A2.68,2.68,0,0,1,3.46,5H58.69ZM86.77,41.57a2,2,0,0,0,1.87-1.85v-32a2,2,0,0,0-1.87-1.85H84a2,2,0,0,0-1.87,1.85V20.26H70.85V7.74A2,2,0,0,0,69,5.89H66.17A2,2,0,0,0,64.3,7.74V24.89a2,2,0,0,0,1.87,1.85H82.09V39.26A2,2,0,0,0,84,41.11h2.81ZM55.41,30a2.75,2.75,0,0,1-.47,1.85l-9.83,9.27c-.46.46-2.34.46-2.34.46s-1.87,0-2.34-.46l-9.36-9.27A2.79,2.79,0,0,1,30.61,30V13.3a2,2,0,0,1,1.87-1.85h2.81a2,2,0,0,1,1.87,1.85V29.06l5.61,5.56,5.62-5.56V13.77a2,2,0,0,1,1.87-1.86h2.81a2,2,0,0,1,1.87,1.86V30ZM8.14,41.57H24.05a2,2,0,0,0,1.88-1.85V36.94a2,2,0,0,0-1.88-1.85H13.29V13.3a2,2,0,0,0-1.87-1.85H8.14A2,2,0,0,0,6.27,13.3V40.18A2.08,2.08,0,0,0,8.14,41.57Z"/></svg>