<svg id="图层_1" data-name="图层 1" xmlns="http://www.w3.org/2000/svg" viewBox="0 0 95 47"><defs><style>.cls-1{fill:#fff;}.cls-2{fill:#ee672a;}</style></defs><path class="cls-1" d="M4.26,4.07H91.7V42.5H4.26Z"/><path class="cls-2" d="M92.54.82A2.39,2.39,0,0,1,94.9,3.51V44.12a2.64,2.64,0,0,1-2.63,2.68H3.69A2.64,2.64,0,0,1,1,44.2V8.2A2.65,2.65,0,0,1,3.69,5.52H59.22v-2A2.65,2.65,0,0,1,61.91.82H92.54ZM35.67,11.22H33a2.17,2.17,0,0,0-2,2V29.69c0,.68,0,1.69.33,2l9.42,9.4a4.07,4.07,0,0,0,2.31.67h0a4.17,4.17,0,0,0,2.36-.67l10.09-9.4A2.49,2.49,0,0,0,55.86,30V13.57a2.17,2.17,0,0,0-2-2H51.15a2.17,2.17,0,0,0-2,2V28.68l-5.72,5.7-5.72-5.7V13.24A2.17,2.17,0,0,0,35.67,11.22Zm-24.23,0H8.75a2.17,2.17,0,0,0-2,2V39.76a2.17,2.17,0,0,0,2,2H24.9a2.17,2.17,0,0,0,2-2V37.07a2.16,2.16,0,0,0-2-2H13.46V13.24A2.17,2.17,0,0,0,11.44,11.22Zm76.05-5H66.63a2.16,2.16,0,0,0-2,2V25.32a2.16,2.16,0,0,0,2,2H82.78v7.73H66.63a2.16,2.16,0,0,0-2,2v2.68a2.17,2.17,0,0,0,2,2H87.49a2.17,2.17,0,0,0,2-2V22.64a2.17,2.17,0,0,0-2-2H71.35V13.24H87.49a2.17,2.17,0,0,0,2-2v-3A2.16,2.16,0,0,0,87.49,6.19Z"/></svg>