<svg id="图层_1" data-name="图层 1" xmlns="http://www.w3.org/2000/svg" viewBox="0 0 95 47"><defs><style>.cls-1{fill:#fff;}.cls-1,.cls-2{fill-rule:evenodd;}.cls-2{fill:#f04c49;}</style></defs><path class="cls-1" d="M88.83,5.37h-26v5.11H6.08V41.63H88.83V10.48h0Z"/><path class="cls-2" d="M61.4.26A2.68,2.68,0,0,0,58.61,3V4.9H3.75A2.68,2.68,0,0,0,1,7.69V44a2.67,2.67,0,0,0,2.78,2.78h87.4A2.68,2.68,0,0,0,93.94,44V3C94.41,1.65,93,.26,91.62.26ZM88.36,11a2,2,0,0,1-1.85,1.86H70.7v7.44H86.51a2,2,0,0,1,1.85,1.86v17.2a2,2,0,0,1-1.85,1.86H66.05a2,2,0,0,1-1.86-1.86V7.69a2,2,0,0,1,1.86-1.86H86.51a2,2,0,0,1,1.85,1.86ZM54.89,31.4c.47-.46.47-.93.47-1.86V13.27a2,2,0,0,0-1.86-1.86H50.71a2,2,0,0,0-1.86,1.86V28.61l-6,5.58-5.58-5.58V12.81A2,2,0,0,0,35.37,11H32.58a2,2,0,0,0-1.86,1.86V29.54c0,.93,0,1.86.46,1.86l9.3,9.3c.47.47,2.33.47,2.33.47s1.86,0,2.32-.47ZM24.67,41.63H8.4a2,2,0,0,1-1.86-1.86v-27A2,2,0,0,1,8.4,11h2.79a2,2,0,0,1,1.86,1.86V34.66H24.21a2,2,0,0,1,1.86,1.86v2.79A1.63,1.63,0,0,1,24.67,41.63Zm57.19-7H70.7V26.75H81.86Z"/></svg>