<svg id="图层_1" data-name="图层 1" xmlns="http://www.w3.org/2000/svg" viewBox="0 0 95 47"><defs><style>.cls-1{fill:#fff;fill-rule:evenodd;}.cls-2{fill:#f04c49;}</style></defs><path class="cls-1" d="M65,10.53H46.15v3.71H5.06V36.8H65V14.24h0Z"/><path class="cls-2" d="M4.05,41.52H91a3.61,3.61,0,0,0,2-.34c.34-.33.67-.33.67-.67.34-.34.34-1,.34-2v-30a3.61,3.61,0,0,0-.34-2c-.33-.34-.33-.67-.67-.67-.34-.34-1-.34-2-.34H42.45a3.61,3.61,0,0,0-2,.34c-.34.33-.68.33-.68.67-.33.34-.33,1-.33,2v2.36H4.05a3.61,3.61,0,0,0-2,.34c-.34.33-.67.67-.67,1-.34.33-.34,1-.34,2V38.83a3.63,3.63,0,0,0,.34,2c.33.33.33.67.67.67Z"/><path class="cls-1" d="M69.39,25.69,79.83,11.21a1.11,1.11,0,0,1,2,.67l-1,8.08h6.73a1.14,1.14,0,0,1,1,1.69L78.15,36.13a1.11,1.11,0,0,1-2-.67l1-8.09H70.4C69.39,27.37,68.72,26.36,69.39,25.69Z"/><path class="cls-1" d="M43.79,12.22a1.45,1.45,0,0,1,1.35-1.35H59.29a1.45,1.45,0,0,1,1.35,1.35V13.9a1.46,1.46,0,0,1-1.35,1.35H48.51v6.06H59.63A1.44,1.44,0,0,1,61,22.66V35.12a1.45,1.45,0,0,1-1.34,1.35H45.14a1.46,1.46,0,0,1-1.35-1.35ZM48.51,26v6.06h7.75V26Z"/><path class="cls-1" d="M25.61,15.92A1.45,1.45,0,0,1,27,17.27V27.71l3.37,3,3.37-3V17.27A1.45,1.45,0,0,1,35,15.92h1.68a1.45,1.45,0,0,1,1.35,1.35V29.39a1.22,1.22,0,0,1-.34,1L31,36.47a1.28,1.28,0,0,1-2,0L22.24,30.4a1.22,1.22,0,0,1-.34-1V17.27a1.46,1.46,0,0,1,1.35-1.35Z"/><path class="cls-1" d="M8.43,15.92a1.46,1.46,0,0,1,1.35,1.35V31.75H18.2a1.45,1.45,0,0,1,1.34,1.35v1.68a1.44,1.44,0,0,1-1.34,1.35H6.74A1.44,1.44,0,0,1,5.4,34.78V16.93a1.45,1.45,0,0,1,1.34-1.35H8.43Z"/></svg>