<?xml version="1.0" standalone="no"?><!DOCTYPE svg PUBLIC "-//W3C//DTD SVG 1.1//EN" "http://www.w3.org/Graphics/SVG/1.1/DTD/svg11.dtd"><svg t="1733384556641" class="icon" viewBox="0 0 1170 1024" version="1.1" xmlns="http://www.w3.org/2000/svg" p-id="11689" id="mx_n_1733384556642" xmlns:xlink="http://www.w3.org/1999/xlink" width="228.515625" height="200"><path d="M985.478095 0C1085.19619 0 1170.285714 72.899048 1170.285714 168.911238v686.177524C1170.285714 951.100952 1085.244952 1024 985.478095 1024H184.807619C85.089524 1024 0 951.100952 0 855.088762V168.911238C0 72.899048 85.040762 0 184.807619 0z m0 146.285714H184.807619c-23.552 0-38.521905 12.824381-38.521905 22.625524v686.177524c0 9.752381 14.969905 22.625524 38.521905 22.625524h800.670476c23.552 0 38.521905-12.824381 38.521905-22.625524V168.911238c0-9.752381-14.969905-22.625524-38.521905-22.625524z m-431.542857 78.750476c250.148571-23.405714 396.921905 75.727238 396.921905 286.96381 0 209.92-145.017905 312.758857-394.48381 297.74019A73.142857 73.142857 0 0 1 487.619048 736.792381v-438.857143a73.142857 73.142857 0 0 1 66.31619-72.850286zM316.952381 219.428571a73.142857 73.142857 0 0 1 72.801524 66.121143L390.095238 292.571429v438.857142a73.142857 73.142857 0 0 1-145.944381 7.021715L243.809524 731.428571V292.571429a73.142857 73.142857 0 0 1 73.142857-73.142858zM633.904762 367.469714v297.057524l5.412571-0.195048c114.590476-6.534095 162.230857-52.370286 165.10781-143.36l0.146286-8.97219c0-95.865905-45.738667-141.897143-163.206096-144.432762L633.904762 367.469714z" fill="#2f2f2f" p-id="11690"></path></svg>