<?xml version="1.0" encoding="UTF-8"?>
<svg id="_图层_2" data-name="图层 2" xmlns="http://www.w3.org/2000/svg" viewBox="0 0 91 34">
  <defs>
    <style>
      .cls-1 {
        fill-rule: evenodd;
      }

      .cls-1, .cls-2, .cls-3, .cls-4 {
        stroke-width: 0px;
      }

      .cls-1, .cls-3 {
        fill: #fff;
      }

      .cls-2 {
        fill: #00faf0;
      }

      .cls-4 {
        fill: #fe2c55;
      }
    </style>
  </defs>
  <g id="Group_1322" data-name="Group 1322">
    <g id="_å_å_" data-name="å¾å½¢">
      <path id="Vector" class="cls-2" d="M11.64,13.38v-1.32c-.46-.05-.91-.09-1.38-.09C4.61,11.97,0,16.59,0,22.28c0,3.48,1.73,6.58,4.37,8.44-1.71-1.85-2.75-4.3-2.75-7.02.02-5.62,4.48-10.2,10.02-10.33Z"/>
      <path id="Vector_2" data-name="Vector 2" class="cls-2" d="M11.88,28.38c2.51,0,4.57-2.01,4.66-4.52V1.42h4.08c-.09-.46-.13-.93-.13-1.43h-5.57v22.44c-.09,2.51-2.15,4.52-4.66,4.52-.78,0-1.53-.2-2.17-.55.86,1.21,2.24,1.98,3.79,1.98Z"/>
      <path id="Vector_3" data-name="Vector 3" class="cls-2" d="M28.25,9.04v-1.25c-1.55,0-3.01-.46-4.23-1.26,1.09,1.25,2.57,2.14,4.23,2.51Z"/>
      <path id="Vector_4" data-name="Vector 4" class="cls-4" d="M24.05,6.53c-1.18-1.37-1.91-3.15-1.91-5.11h-1.49c.4,2.12,1.66,3.96,3.41,5.11Z"/>
      <path id="Vector_5" data-name="Vector 5" class="cls-4" d="M10.26,17.56c-2.59,0-4.68,2.11-4.68,4.71,0,1.81,1.02,3.37,2.51,4.16-.55-.77-.89-1.72-.89-2.75,0-2.6,2.1-4.71,4.68-4.71.47,0,.95.07,1.38.22v-5.72c-.46-.05-.91-.09-1.38-.09h-.24v4.4c-.44-.15-.89-.22-1.38-.22Z"/>
      <path id="Vector_6" data-name="Vector 6" class="cls-4" d="M28.26,9.04v4.36c-2.9,0-5.56-.93-7.74-2.51v11.38c0,5.68-4.59,10.31-10.26,10.31-2.19,0-4.21-.7-5.87-1.87,1.88,2.01,4.54,3.3,7.51,3.3,5.65,0,10.26-4.62,10.26-10.31v-11.38c2.19,1.58,4.86,2.51,7.74,2.51v-5.61c-.56-.02-1.11-.07-1.64-.18Z"/>
      <path id="Vector_7" data-name="Vector 7" class="cls-3" d="M20.51,22.27v-11.38c2.19,1.58,4.86,2.51,7.74,2.51v-4.36c-1.68-.37-3.13-1.26-4.23-2.51-1.75-1.14-3.01-2.97-3.39-5.11h-4.08v22.44c-.09,2.51-2.15,4.52-4.66,4.52-1.57,0-2.95-.77-3.79-1.96-1.49-.79-2.51-2.36-2.51-4.16,0-2.6,2.1-4.71,4.68-4.71.47,0,.95.07,1.38.22v-4.4c-5.54.13-10,4.71-10,10.3,0,2.71,1.04,5.18,2.75,7.02,1.66,1.17,3.7,1.87,5.87,1.87,5.63.02,10.24-4.62,10.24-10.3Z"/>
    </g>
    <path id="Union" class="cls-1" d="M56.95,6.01h-2.63v13.91l-8.72.76v2.81l8.72-.74v6.25h2.63v-6.49l2.69-.25v-2.81l-2.69.25V6.01ZM41.95,6.01h-2.65v3.91h-3.08v2.66h3.08v5.43l-3.08.45v2.81l3.08-.45v4.65c0,.37-.31.68-.67.68h-2.22v2.66h3.32c1.22,0,2.22-1,2.22-2.23v-6.15l2.69-.41v-2.81l-2.69.41v-5.02h2.69v-2.66h-2.69v-3.93ZM46.7,7.97l6.25,1.13v2.81l-6.25-1.11v-2.83ZM52.96,14.94l-6.25-1.13v2.83l6.25,1.13v-2.83ZM81.54,11.6l-.41,2.17h5.17v2.6h-23.37v-2.6h5.3l-.35-2.17h2.81l.33,2.17h7.29l.43-2.17h2.79ZM85.57,7.85h-8.86l-.45-1.84h-3.44l.45,1.84h-9.6v2.58h21.9v-2.58ZM67.28,18.28h14.69c1.24,0,2.22,1,2.22,2.23v6.08c0,1.23-1,2.23-2.22,2.23h-14.69c-1.22,0-2.22-1-2.22-2.23v-6.08c0-1.23,1-2.23,2.22-2.23ZM81.05,20.7h-12.84c-.37,0-.67.29-.65.68v1.09h14.16v-1.09c0-.37-.31-.68-.67-.68ZM68.22,26.43h12.84c.37,0,.65-.31.65-.68v-1.11h-14.16v1.11c0,.37.31.68.67.68Z"/>
  </g>
</svg>